<?xml version="1.0" encoding="UTF-8" standalone="no"?>
<!DOCTYPE svg PUBLIC "-//W3C//DTD SVG 1.1//EN" "http://www.w3.org/Graphics/SVG/1.1/DTD/svg11.dtd">
<svg width="100%" height="100%" viewBox="0 0 1200 360" version="1.1" xmlns="http://www.w3.org/2000/svg" xmlns:xlink="http://www.w3.org/1999/xlink" xml:space="preserve" xmlns:serif="http://www.serif.com/" style="fill-rule:evenodd;clip-rule:evenodd;stroke-linejoin:round;stroke-miterlimit:2;">
    <g id="Group_2" transform="matrix(10,0,0,10,0,1.959)">
        <path id="Vector" d="M56.618,16.729C56.618,20.103 55.918,22.55 54.514,24.065C53.11,25.581 51.249,26.339 48.921,26.339C46.594,26.339 44.93,25.949 43.653,25.177L43.653,31.445L38.864,33.249L38.864,9.444C39.434,9.148 40.586,8.834 42.318,8.502C44.05,8.17 45.76,8.008 47.449,8.008C50.574,8.008 52.88,8.733 54.373,10.18C55.867,11.627 56.614,13.81 56.614,16.729L56.618,16.729ZM51.66,16.729C51.66,12.923 50.271,11.017 47.489,11.017C46.099,11.017 44.822,11.27 43.656,11.771L43.656,22.546C43.974,22.752 44.519,22.94 45.28,23.109C46.045,23.279 46.767,23.365 47.452,23.365C48.91,23.365 49.978,22.842 50.65,21.792C51.321,20.742 51.66,19.057 51.66,16.729Z" style="fill-rule:nonzero;"/>
        <path id="Vector_2" d="M88.258,8.42L82.784,25.932L76.833,25.932L72.73,11.397L68.83,25.932L62.879,25.932L57.405,8.42L62.331,8.42L66.163,22.717L70.064,8.42L75.776,8.42L79.947,22.717L83.469,8.42L88.258,8.42Z" style="fill-rule:nonzero;"/>
        <path id="Vector_3" d="M101.32,11.261C100.703,11.124 100.078,11.056 99.44,11.056C99.028,11.056 98.577,11.088 98.09,11.157C97.599,11.225 97.195,11.294 96.878,11.362C96.556,11.431 96.21,11.51 95.835,11.601C95.459,11.691 95.257,11.738 95.236,11.738L95.236,25.933L90.447,25.933L90.447,9.414C91.086,9.165 92.244,8.865 93.919,8.526C95.593,8.183 97.206,8.014 98.757,8.014C100.057,8.014 100.912,8.082 101.323,8.219L101.323,11.265L101.32,11.261Z" style="fill-rule:nonzero;"/>
        <path id="Vector_4" d="M119.997,24.873C117.305,25.855 114.411,26.346 111.308,26.346C108.205,26.346 105.801,25.592 104.365,24.087C102.929,22.582 102.211,20.132 102.211,16.733C102.211,13.929 102.929,11.775 104.365,10.27C105.801,8.765 107.649,8.011 109.908,8.011C112.167,8.011 113.805,8.354 115.176,9.036L115.176,1.206L120.001,1.206L120.001,24.873L119.997,24.873ZM115.173,22.651L115.173,11.876C115.035,11.854 114.711,11.757 114.198,11.584C113.686,11.414 113.202,11.277 112.744,11.172C112.289,11.071 111.831,11.017 111.376,11.017C108.594,11.017 107.205,12.922 107.205,16.729C107.205,19.031 107.537,20.713 108.197,21.774C108.858,22.835 109.908,23.365 111.344,23.365C112.78,23.365 114.057,23.127 115.176,22.647L115.173,22.651Z" style="fill-rule:nonzero;"/>
    </g>
    <g id="Group_3" transform="matrix(10,0,0,10,0,1.959)">
        <path id="Vector_5" d="M30.251,11.875C30.251,15.159 28.923,18.125 26.772,20.272C24.625,22.419 21.652,23.751 18.376,23.751L17.686,23.751L17.686,11.93L0.005,11.93L0.005,0L18.376,0C24.936,0 30.251,5.319 30.251,11.875Z" style="fill:url(#_Linear1);fill-rule:nonzero;"/>
        <path id="Vector_6" d="M17.686,11.929L17.686,23.751L15.197,23.751C13.078,23.751 11.04,24.595 9.542,26.096L0.005,35.63L0.005,11.933L17.686,11.933L17.686,11.929Z" style="fill:url(#_Linear2);fill-rule:nonzero;"/>
        <path id="Vector_7" d="M17.685,23.755L17.685,25.494C17.685,31.091 12.785,35.631 7.181,35.631L0,35.631L9.537,26.097C11.038,24.596 13.073,23.752 15.192,23.752L17.681,23.752L17.685,23.755Z" style="fill:url(#_Linear3);fill-rule:nonzero;"/>
    </g>
    <defs>
        <linearGradient id="_Linear1" x1="0" y1="0" x2="1" y2="0" gradientUnits="userSpaceOnUse" gradientTransform="matrix(24.5014,13.1997,-13.1997,24.5014,-3.22469,-0.382497)"><stop offset="0" style="stop-color:rgb(192,255,232);stop-opacity:1"/><stop offset="1" style="stop-color:rgb(84,247,197);stop-opacity:1"/></linearGradient>
        <linearGradient id="_Linear2" x1="0" y1="0" x2="1" y2="0" gradientUnits="userSpaceOnUse" gradientTransform="matrix(-13.142,14.1885,-14.1885,-13.142,13.2912,13.0406)"><stop offset="0" style="stop-color:rgb(125,231,255);stop-opacity:1"/><stop offset="1" style="stop-color:rgb(67,192,255);stop-opacity:1"/></linearGradient>
        <linearGradient id="_Linear3" x1="0" y1="0" x2="1" y2="0" gradientUnits="userSpaceOnUse" gradientTransform="matrix(11.9296,-7.4695,7.4695,11.9296,4.4384,34.1438)"><stop offset="0" style="stop-color:rgb(3,102,239);stop-opacity:1"/><stop offset="1" style="stop-color:rgb(102,172,249);stop-opacity:1"/></linearGradient>
    </defs>
</svg>
