<svg width="120" height="36" viewBox="0 0 120 36" fill="none" xmlns="http://www.w3.org/2000/svg">
<g id="Group">
<g id="Group_2">
<path id="Vector" d="M56.6179 16.7294C56.6179 20.1034 55.9178 22.5499 54.5141 24.0654C53.1104 25.581 51.2485 26.3388 48.921 26.3388C46.5936 26.3388 44.9301 25.9491 43.6527 25.1768V31.4447L38.8643 33.249V9.44397C39.4344 9.14808 40.5855 8.83415 42.3176 8.50217C44.0496 8.17019 45.76 8.00781 47.4488 8.00781C50.5737 8.00781 52.8795 8.73311 54.3734 10.1801C55.8673 11.6271 56.6143 13.8102 56.6143 16.7294H56.6179ZM51.6599 16.7294C51.6599 12.9225 50.2706 11.0173 47.4885 11.0173C46.0992 11.0173 44.8218 11.2699 43.6563 11.7714V22.5463C43.9738 22.752 44.5187 22.9396 45.2801 23.1092C46.0451 23.2788 46.7668 23.3654 47.4524 23.3654C48.9102 23.3654 49.9783 22.8422 50.6495 21.7921C51.3207 20.742 51.6599 19.0569 51.6599 16.7294Z" fill="black"/>
<path id="Vector_2" d="M88.2576 8.41992L82.7836 25.9318H76.8332L72.7304 11.3969L68.8296 25.9318H62.8793L57.4053 8.41992H62.3308L66.163 22.7166L70.0637 8.41992H75.7759L79.9473 22.7166L83.4691 8.41992H88.2576Z" fill="black"/>
<path id="Vector_3" d="M101.32 11.2613C100.703 11.1242 100.078 11.0556 99.4395 11.0556C99.0282 11.0556 98.5771 11.0881 98.09 11.1566C97.5992 11.2252 97.1951 11.2938 96.8775 11.3623C96.5564 11.4309 96.21 11.5103 95.8347 11.6005C95.4594 11.6907 95.2573 11.7376 95.2357 11.7376V25.9333H90.4473V9.41375C91.086 9.16477 92.2443 8.86527 93.9186 8.52608C95.5929 8.18327 97.2059 8.01367 98.7575 8.01367C100.057 8.01367 100.912 8.08224 101.323 8.21936V11.2649L101.32 11.2613Z" fill="black"/>
<path id="Vector_4" d="M119.997 24.8734C117.305 25.8549 114.411 26.3457 111.308 26.3457C108.205 26.3457 105.801 25.5915 104.365 24.0868C102.929 22.5821 102.211 20.1319 102.211 16.7328C102.211 13.929 102.929 11.7747 104.365 10.27C105.801 8.76528 107.649 8.01112 109.908 8.01112C112.167 8.01112 113.805 8.35392 115.176 9.03592V1.20557H120.001V24.8734H119.997ZM115.173 22.6506V11.8758C115.035 11.8541 114.711 11.7567 114.198 11.5835C113.686 11.4139 113.202 11.2768 112.744 11.1721C112.289 11.0711 111.831 11.017 111.376 11.017C108.594 11.017 107.205 12.9222 107.205 16.7292C107.205 19.0313 107.537 20.7129 108.197 21.7738C108.858 22.8347 109.908 23.3651 111.344 23.3651C112.78 23.3651 114.057 23.1269 115.176 22.647L115.173 22.6506Z" fill="black"/>
</g>
<g id="Group_3">
<path id="Vector_5" d="M30.251 11.8754C30.251 15.1591 28.9231 18.1253 26.7724 20.2723C24.6254 22.4193 21.652 23.7509 18.3755 23.7509H17.6863V11.9296H0.00488281V0H18.3755C24.9357 0 30.251 5.31887 30.251 11.8754Z" fill="url(#paint0_linear_1_1627)"/>
<path id="Vector_6" d="M17.6863 11.9292V23.7505H15.1965C13.0783 23.7505 11.0396 24.5949 9.54204 26.096L0.00488281 35.6295V11.9328H17.6863V11.9292Z" fill="url(#paint1_linear_1_1627)"/>
<path id="Vector_7" d="M17.685 23.7551V25.4943C17.685 31.0911 12.7848 35.6305 7.18083 35.6305H0L9.53715 26.097C11.0383 24.5958 13.0734 23.7515 15.1916 23.7515H17.6814L17.685 23.7551Z" fill="url(#paint2_linear_1_1627)"/>
</g>
</g>
<defs>
<linearGradient id="paint0_linear_1_1627" x1="-3.22469" y1="-0.382497" x2="21.2767" y2="12.8172" gradientUnits="userSpaceOnUse">
<stop stop-color="#C0FFE8"/>
<stop offset="1" stop-color="#54F7C5"/>
</linearGradient>
<linearGradient id="paint1_linear_1_1627" x1="13.2912" y1="13.0406" x2="0.149228" y2="27.2291" gradientUnits="userSpaceOnUse">
<stop stop-color="#7DE7FF"/>
<stop offset="1" stop-color="#43C0FF"/>
</linearGradient>
<linearGradient id="paint2_linear_1_1627" x1="4.4384" y1="34.1438" x2="16.368" y2="26.6743" gradientUnits="userSpaceOnUse">
<stop stop-color="#0366EF"/>
<stop offset="1" stop-color="#66ACF9"/>
</linearGradient>
</defs>
</svg>
