<?xml version="1.0" encoding="UTF-8"?>
<svg id="Layer_2" xmlns="http://www.w3.org/2000/svg" xmlns:xlink="http://www.w3.org/1999/xlink" version="1.1" viewBox="0 0 2546.8 756.2">
  <!-- Generator: Adobe Illustrator 29.3.1, SVG Export Plug-In . SVG Version: 2.1.0 Build 151)  -->
  <defs>
    <style>
      .st0 {
        fill: url(#linear-gradient2);
      }

      .st1 {
        fill: url(#linear-gradient1);
      }

      .st2 {
        fill: url(#linear-gradient);
      }

      .st3 {
        fill: #fff;
      }
    </style>
    <linearGradient id="linear-gradient" x1="-99.7" y1="765" x2="505.5" y2="459" gradientTransform="translate(0 758) scale(1 -1)" gradientUnits="userSpaceOnUse">
      <stop offset="0" stop-color="#c0ffe8"/>
      <stop offset="1" stop-color="#54f7c5"/>
    </linearGradient>
    <linearGradient id="linear-gradient1" x1="282" y1="481.2" x2="3.1" y2="180.1" gradientTransform="translate(0 758) scale(1 -1)" gradientUnits="userSpaceOnUse">
      <stop offset="0" stop-color="#7de7ff"/>
      <stop offset="1" stop-color="#43c0ff"/>
    </linearGradient>
    <linearGradient id="linear-gradient2" x1="94.2" y1="33.3" x2="347.4" y2="191.9" gradientTransform="translate(0 758) scale(1 -1)" gradientUnits="userSpaceOnUse">
      <stop offset="0" stop-color="#0366ef"/>
      <stop offset="1" stop-color="#66acf9"/>
    </linearGradient>
  </defs>
  <g id="Layer_1-2">
    <g>
      <g>
        <path class="st3" d="M1201.6,355.3c0,71.6-14.9,123.5-44.6,155.7-29.8,32.2-69.3,48.3-118.7,48.3s-84.7-8.2-111.8-24.7v133l-101.6,38.3V200.7c12.1-6.3,36.5-12.9,73.3-20,36.8-7,73.1-10.5,108.9-10.5,66.3,0,115.3,15.4,147,46.1,31.7,30.7,47.6,77.1,47.6,139h0ZM1096.4,355.3c0-80.8-29.5-121.2-88.6-121.2s-56.6,5.3-81.3,16v228.7c6.8,4.4,18.3,8.4,34.5,12,16.2,3.6,31.6,5.5,46.1,5.5,31,0,53.6-11.1,67.9-33.4,14.3-22.3,21.4-58.1,21.4-107.4h0Z"/>
        <path class="st3" d="M1873.1,178.9l-116.2,371.7h-126.3l-87.1-308.5-82.8,308.5h-126.3l-116.2-371.7h104.5l81.3,303.4,82.8-303.4h121.2l88.6,303.4,74.8-303.4h101.6Z"/>
        <path class="st3" d="M2150.4,239.1c-13.1-2.9-26.4-4.4-39.9-4.4s-18.3.7-28.7,2.2c-10.4,1.5-19,2.9-25.8,4.4-6.8,1.4-14.2,3.1-22.1,5.1-8,1.9-12.2,2.9-12.7,2.9v301.3h-101.6V199.9c13.5-5.3,38.1-11.6,73.7-18.9,35.6-7.3,69.8-10.9,102.7-10.9s45.7,1.5,54.4,4.4v64.6h0Z"/>
        <path class="st3" d="M2546.8,528c-57.1,20.8-118.6,31.2-184.4,31.2s-116.9-16-147.4-47.9c-30.5-31.9-45.7-84-45.7-156.1s15.2-105.3,45.7-137.2c30.5-31.9,69.7-47.9,117.6-47.9s82.8,7.3,111.8,21.8V25.7h102.4v502.3h0ZM2444.4,480.9v-228.7c-2.9-.5-9.8-2.5-20.7-6.2-10.9-3.6-21.2-6.5-30.8-8.7-9.7-2.2-19.4-3.3-29-3.3-59,0-88.6,40.4-88.6,121.2s7,84.6,21.1,107.1c14,22.5,36.3,33.8,66.8,33.8s57.6-5.1,81.3-15.2h0Z"/>
      </g>
      <g>
        <path class="st2" d="M642,252.1c0,69.7-28.2,132.6-73.8,178.2-45.6,45.6-108.6,73.8-178.2,73.8h-14.6v-250.9H0V0h389.9c139.3,0,252.1,112.9,252.1,252.1Z"/>
        <path class="st1" d="M375.3,253.2v250.9h-52.9c-45,0-88.2,17.9-120,49.8L0,756.2V253.2h375.3Z"/>
        <path class="st0" d="M375.3,504.1v36.9c0,118.8-104,215.1-222.9,215.1H0l202.4-202.3c31.8-31.8,75.1-49.8,120-49.8h52.9Z"/>
      </g>
    </g>
  </g>
</svg>